<mxfile host="Electron" agent="Mozilla/5.0 (Windows NT 10.0; Win64; x64) AppleWebKit/537.36 (KHTML, like Gecko) draw.io/26.0.16 Chrome/132.0.6834.196 Electron/34.2.0 Safari/537.36" version="26.0.16">
  <diagram id="advanced-null-controller-v21" name="Advanced Null Controller v2.1 工作流程">
    <mxGraphModel dx="1400" dy="1200" grid="1" gridSize="10" guides="1" tooltips="1" connect="1" arrows="1" fold="1" page="1" pageScale="1" pageWidth="1400" pageHeight="1800" background="#f8f9fa" math="0" shadow="0">
      <root>
        <mxCell id="0" />
        <mxCell id="1" parent="0" />
        
        <!-- 主标题 -->
        <mxCell id="title" value="Advanced Null Controller v2.1&#xa;高级空对象控制器工作流程&#xa;作者：烟囱 | 版本：2024.03.27" style="rounded=1;whiteSpace=wrap;html=1;fontSize=16;fontStyle=1;fillColor=#e1d5e7;strokeColor=#9673a6;shadow=1;align=center;" vertex="1" parent="1">
          <mxGeometry x="500" y="30" width="400" height="80" as="geometry" />
        </mxCell>
        
        <!-- 启动流程 -->
        <mxCell id="start" value="启动脚本" style="ellipse;whiteSpace=wrap;html=1;fillColor=#d5e8d4;strokeColor=#82b366;fontSize=14;fontStyle=1;" vertex="1" parent="1">
          <mxGeometry x="650" y="150" width="100" height="60" as="geometry" />
        </mxCell>
        
        <mxCell id="ui_init" value="创建UI界面" style="rounded=1;whiteSpace=wrap;html=1;fontSize=12;fillColor=#dae8fc;strokeColor=#6c8ebf;" vertex="1" parent="1">
          <mxGeometry x="640" y="250" width="120" height="40" as="geometry" />
        </mxCell>
        
        <!-- 用户交互决策点 -->
        <mxCell id="user_interaction" value="用户交互" style="rhombus;whiteSpace=wrap;html=1;fillColor=#fff2cc;strokeColor=#d6b656;fontSize=12;fontStyle=1;" vertex="1" parent="1">
          <mxGeometry x="650" y="330" width="100" height="80" as="geometry" />
        </mxCell>
        
        <!-- 主要功能分支 -->
        <mxCell id="main_function" value="主功能按钮" style="rounded=1;whiteSpace=wrap;html=1;fontSize=12;fillColor=#f8cecc;strokeColor=#b85450;" vertex="1" parent="1">
          <mxGeometry x="640" y="460" width="120" height="40" as="geometry" />
        </mxCell>
        
        <!-- 高级工具分支 -->
        <mxCell id="advanced_tools" value="高级工具" style="rounded=1;whiteSpace=wrap;html=1;fontSize=12;fillColor=#e1d5e7;strokeColor=#9673a6;" vertex="1" parent="1">
          <mxGeometry x="400" y="460" width="120" height="40" as="geometry" />
        </mxCell>
        
        <!-- 帮助功能 -->
        <mxCell id="help_function" value="帮助功能" style="rounded=1;whiteSpace=wrap;html=1;fontSize=12;fillColor=#d5e8d4;strokeColor=#82b366;" vertex="1" parent="1">
          <mxGeometry x="880" y="460" width="120" height="40" as="geometry" />
        </mxCell>
        
        <!-- 主功能模式选择 -->
        <mxCell id="function_mode" value="功能模式选择" style="rhombus;whiteSpace=wrap;html=1;fillColor=#fff2cc;strokeColor=#d6b656;fontSize=12;" vertex="1" parent="1">
          <mxGeometry x="650" y="540" width="100" height="80" as="geometry" />
        </mxCell>
        
        <!-- 创建控制器模式 -->
        <mxCell id="create_mode" value="创建控制器模式" style="rounded=1;whiteSpace=wrap;html=1;fontSize=12;fillColor=#dae8fc;strokeColor=#6c8ebf;" vertex="1" parent="1">
          <mxGeometry x="480" y="660" width="120" height="40" as="geometry" />
        </mxCell>
        
        <!-- 仅表达式模式 -->
        <mxCell id="expression_mode" value="仅表达式模式" style="rounded=1;whiteSpace=wrap;html=1;fontSize=12;fillColor=#dae8fc;strokeColor=#6c8ebf;" vertex="1" parent="1">
          <mxGeometry x="640" y="660" width="120" height="40" as="geometry" />
        </mxCell>
        
        <!-- 清除模式 -->
        <mxCell id="clear_mode" value="清除控制器模式" style="rounded=1;whiteSpace=wrap;html=1;fontSize=12;fillColor=#dae8fc;strokeColor=#6c8ebf;" vertex="1" parent="1">
          <mxGeometry x="800" y="660" width="120" height="40" as="geometry" />
        </mxCell>
        
        <!-- 高级工具分支 -->
        <mxCell id="layered_nulls" value="层层空功能&#xa;(Ctrl+点击置顶)" style="rounded=1;whiteSpace=wrap;html=1;fontSize=11;fillColor=#e1d5e7;strokeColor=#9673a6;" vertex="1" parent="1">
          <mxGeometry x="200" y="560" width="120" height="50" as="geometry" />
        </mxCell>
        
        <mxCell id="select_children" value="选择子级功能&#xa;(Shift+点击保留)" style="rounded=1;whiteSpace=wrap;html=1;fontSize=11;fillColor=#e1d5e7;strokeColor=#9673a6;" vertex="1" parent="1">
          <mxGeometry x="340" y="560" width="120" height="50" as="geometry" />
        </mxCell>
        
        <mxCell id="global_control" value="整体控制功能" style="rounded=1;whiteSpace=wrap;html=1;fontSize=11;fillColor=#e1d5e7;strokeColor=#9673a6;" vertex="1" parent="1">
          <mxGeometry x="480" y="560" width="120" height="50" as="geometry" />
        </mxCell>
        
        <!-- 图层验证流程 -->
        <mxCell id="layer_validation" value="图层选择验证" style="rhombus;whiteSpace=wrap;html=1;fillColor=#fff2cc;strokeColor=#d6b656;fontSize=12;" vertex="1" parent="1">
          <mxGeometry x="490" y="750" width="100" height="80" as="geometry" />
        </mxCell>
        
        <!-- 锁定图层处理 -->
        <mxCell id="locked_layers" value="锁定图层处理" style="rounded=1;whiteSpace=wrap;html=1;fontSize=12;fillColor=#f8cecc;strokeColor=#b85450;" vertex="1" parent="1">
          <mxGeometry x="480" y="870" width="120" height="40" as="geometry" />
        </mxCell>
        
        <!-- 控制器创建流程 -->
        <mxCell id="controller_creation" value="控制器创建流程" style="rounded=1;whiteSpace=wrap;html=1;fontSize=12;fillColor=#d5e8d4;strokeColor=#82b366;" vertex="1" parent="1">
          <mxGeometry x="480" y="950" width="120" height="40" as="geometry" />
        </mxCell>
        
        <!-- 表达式应用 -->
        <mxCell id="expression_apply" value="表达式应用" style="rounded=1;whiteSpace=wrap;html=1;fontSize=12;fillColor=#d5e8d4;strokeColor=#82b366;" vertex="1" parent="1">
          <mxGeometry x="480" y="1030" width="120" height="40" as="geometry" />
        </mxCell>
        
        <!-- 完成操作 -->
        <mxCell id="operation_complete" value="操作完成" style="ellipse;whiteSpace=wrap;html=1;fillColor=#d5e8d4;strokeColor=#82b366;fontSize=12;fontStyle=1;" vertex="1" parent="1">
          <mxGeometry x="490" y="1120" width="100" height="60" as="geometry" />
        </mxCell>
        
        <!-- 错误处理 -->
        <mxCell id="error_handling" value="错误提示" style="rounded=1;whiteSpace=wrap;html=1;fontSize=12;fillColor=#f8cecc;strokeColor=#b85450;" vertex="1" parent="1">
          <mxGeometry x="700" y="790" width="120" height="40" as="geometry" />
        </mxCell>
        
        <!-- 连接线 -->
        <mxCell id="edge1" edge="1" parent="1" source="start" target="ui_init">
          <mxGeometry relative="1" as="geometry" />
        </mxCell>
        
        <mxCell id="edge2" edge="1" parent="1" source="ui_init" target="user_interaction">
          <mxGeometry relative="1" as="geometry" />
        </mxCell>
        
        <mxCell id="edge3" edge="1" parent="1" source="user_interaction" target="main_function">
          <mxGeometry relative="1" as="geometry" />
        </mxCell>
        
        <mxCell id="edge4" edge="1" parent="1" source="user_interaction" target="advanced_tools">
          <mxGeometry relative="1" as="geometry" />
        </mxCell>
        
        <mxCell id="edge5" edge="1" parent="1" source="user_interaction" target="help_function">
          <mxGeometry relative="1" as="geometry" />
        </mxCell>
        
        <mxCell id="edge6" edge="1" parent="1" source="main_function" target="function_mode">
          <mxGeometry relative="1" as="geometry" />
        </mxCell>
        
        <mxCell id="edge7" edge="1" parent="1" source="function_mode" target="create_mode">
          <mxGeometry relative="1" as="geometry" />
        </mxCell>
        
        <mxCell id="edge8" edge="1" parent="1" source="function_mode" target="expression_mode">
          <mxGeometry relative="1" as="geometry" />
        </mxCell>
        
        <mxCell id="edge9" edge="1" parent="1" source="function_mode" target="clear_mode">
          <mxGeometry relative="1" as="geometry" />
        </mxCell>
        
        <mxCell id="edge10" edge="1" parent="1" source="advanced_tools" target="layered_nulls">
          <mxGeometry relative="1" as="geometry" />
        </mxCell>
        
        <mxCell id="edge11" edge="1" parent="1" source="advanced_tools" target="select_children">
          <mxGeometry relative="1" as="geometry" />
        </mxCell>
        
        <mxCell id="edge12" edge="1" parent="1" source="advanced_tools" target="global_control">
          <mxGeometry relative="1" as="geometry" />
        </mxCell>
        
        <mxCell id="edge13" edge="1" parent="1" source="create_mode" target="layer_validation">
          <mxGeometry relative="1" as="geometry" />
        </mxCell>
        
        <mxCell id="edge14" edge="1" parent="1" source="layer_validation" target="locked_layers">
          <mxGeometry relative="1" as="geometry">
            <mxPoint as="offset" />
          </mxGeometry>
        </mxCell>
        
        <mxCell id="edge15" edge="1" parent="1" source="layer_validation" target="error_handling">
          <mxGeometry relative="1" as="geometry" />
        </mxCell>
        
        <mxCell id="edge16" edge="1" parent="1" source="locked_layers" target="controller_creation">
          <mxGeometry relative="1" as="geometry" />
        </mxCell>
        
        <mxCell id="edge17" edge="1" parent="1" source="controller_creation" target="expression_apply">
          <mxGeometry relative="1" as="geometry" />
        </mxCell>
        
        <mxCell id="edge18" edge="1" parent="1" source="expression_apply" target="operation_complete">
          <mxGeometry relative="1" as="geometry" />
        </mxCell>
        
        <!-- 标签 -->
        <mxCell id="label1" value="通过" style="text;html=1;align=center;verticalAlign=middle;resizable=0;points=[];autosize=1;strokeColor=none;fillColor=none;fontSize=10;" vertex="1" parent="1">
          <mxGeometry x="520" y="820" width="40" height="20" as="geometry" />
        </mxCell>
        
        <mxCell id="label2" value="失败" style="text;html=1;align=center;verticalAlign=middle;resizable=0;points=[];autosize=1;strokeColor=none;fillColor=none;fontSize=10;" vertex="1" parent="1">
          <mxGeometry x="620" y="770" width="40" height="20" as="geometry" />
        </mxCell>
        
        <mxCell id="label3" value="创建模式" style="text;html=1;align=center;verticalAlign=middle;resizable=0;points=[];autosize=1;strokeColor=none;fillColor=none;fontSize=10;" vertex="1" parent="1">
          <mxGeometry x="560" y="620" width="60" height="20" as="geometry" />
        </mxCell>
        
        <mxCell id="label4" value="表达式模式" style="text;html=1;align=center;verticalAlign=middle;resizable=0;points=[];autosize=1;strokeColor=none;fillColor=none;fontSize=10;" vertex="1" parent="1">
          <mxGeometry x="700" y="620" width="80" height="20" as="geometry" />
        </mxCell>
        
        <mxCell id="label5" value="清除模式" style="text;html=1;align=center;verticalAlign=middle;resizable=0;points=[];autosize=1;strokeColor=none;fillColor=none;fontSize=10;" vertex="1" parent="1">
          <mxGeometry x="780" y="620" width="60" height="20" as="geometry" />
        </mxCell>
        
      </root>
    </mxGraphModel>
  </diagram>
</mxfile>
